<svg xmlns="http://www.w3.org/2000/svg" width="25" height="26" viewBox="0 0 25 26"><defs><linearGradient id="pirja" x1="2.24" x2="22.66" y1="23.02" y2="2.6" gradientUnits="userSpaceOnUse"><stop offset="0" stop-color="#ffc107"/><stop offset=".51" stop-color="#f44336"/><stop offset=".99" stop-color="#9c27b0"/></linearGradient><linearGradient id="pirjb" x1="8.03" x2="16.87" y1="17.23" y2="8.39" gradientUnits="userSpaceOnUse"><stop offset="0" stop-color="#ffc107"/><stop offset=".51" stop-color="#f44336"/><stop offset=".99" stop-color="#9c27b0"/></linearGradient><linearGradient id="pirjc" x1="18.57" x2="19.76" y1="6.69" y2="5.5" gradientUnits="userSpaceOnUse"><stop offset="0" stop-color="#ffc107"/><stop offset=".51" stop-color="#f44336"/><stop offset=".99" stop-color="#9c27b0"/></linearGradient></defs><g><g><g><path fill="url(#pirja)" d="M17.137.31a7.813 7.813 0 0 1 7.813 7.813v9.375a7.813 7.813 0 0 1-7.813 7.812H7.762A7.813 7.813 0 0 1-.05 17.498V8.123A7.813 7.813 0 0 1 7.762.31zm5.47 7.813a5.475 5.475 0 0 0-5.47-5.47H7.764a5.475 5.475 0 0 0-5.47 5.47v9.375a5.475 5.475 0 0 0 5.47 5.468h9.375a5.475 5.475 0 0 0 5.468-5.469z"/></g><g><path fill="url(#pirjb)" d="M18.7 12.81a6.25 6.25 0 1 1-12.5 0 6.25 6.25 0 0 1 12.5 0zm-2.344 0a3.91 3.91 0 0 0-3.906-3.906 3.91 3.91 0 0 0-3.906 3.906 3.912 3.912 0 0 0 3.906 3.906 3.912 3.912 0 0 0 3.906-3.906z"/></g><g><path fill="url(#pirjc)" d="M19.163 6.926a.833.833 0 1 0 0-1.666.833.833 0 0 0 0 1.666z"/></g></g></g></svg>