<svg xmlns="http://www.w3.org/2000/svg" width="35" height="21" viewBox="0 0 35 21"><g><g><g><path fill="#1e88e5" d="M17.101 20.726h2.095s.633-.07.955-.419c.298-.32.287-.92.287-.92s-.042-2.81 1.264-3.225c1.286-.407 2.938 2.717 4.689 3.92 1.323.909 2.329.71 2.329.71l4.682-.066s2.45-.151 1.288-2.077c-.094-.158-.677-1.424-3.481-4.027-2.936-2.726-2.542-2.283.994-6.996 2.154-2.87 3.015-4.623 2.745-5.372-.256-.714-1.84-.526-1.84-.526l-5.267.03s-.39-.052-.681.121c-.283.171-.465.566-.465.566s-.835 2.221-1.948 4.11c-2.346 3.985-3.286 4.195-3.67 3.948-.891-.576-.668-2.318-.668-3.554 0-3.862.585-5.473-1.141-5.89-.574-.137-.995-.23-2.46-.244-1.88-.02-3.473.006-4.374.447-.6.293-1.062.948-.78.985.349.046 1.137.213 1.556.783.541.734.521 2.386.521 2.386s.312 4.546-.725 5.111c-.712.388-1.687-.403-3.78-4.02-1.07-1.852-1.881-3.9-1.881-3.9s-.156-.381-.434-.585c-.337-.248-.81-.327-.81-.327l-5.009.031s-.752.022-1.028.348c-.245.292-.02.892-.02.892s3.922 9.173 8.361 13.798c4.073 4.24 8.696 3.962 8.696 3.962z"/></g></g></g></svg>